<?xml version="1.0" encoding="UTF-8" standalone="no"?>
<svg
   xmlns:dc="http://purl.org/dc/elements/1.1/"
   xmlns:cc="http://creativecommons.org/ns#"
   xmlns:rdf="http://www.w3.org/1999/02/22-rdf-syntax-ns#"
   xmlns:svg="http://www.w3.org/2000/svg"
   xmlns="http://www.w3.org/2000/svg"
   xmlns:sodipodi="http://sodipodi.sourceforge.net/DTD/sodipodi-0.dtd"
   xmlns:inkscape="http://www.inkscape.org/namespaces/inkscape"
   width="64"
   height="64"
   viewBox="0 0 16.933333 16.933334"
   version="1.1"
   id="svg8"
   inkscape:version="0.92.3 (2405546, 2018-03-11)"
   sodipodi:docname="28-Money growth.svg"
   inkscape:export-filename="/home/wanzabuyumna/@WANZ_DESIGN/NICON STUDIO MAGANG/Style Line/Style Line/Icon 8/Icon 8.png"
   inkscape:export-xdpi="96"
   inkscape:export-ydpi="96">
  <defs
     id="defs2" />
  <sodipodi:namedview
     id="base"
     pagecolor="#ffffff"
     bordercolor="#959595"
     borderopacity="1"
     inkscape:pageopacity="0"
     inkscape:pageshadow="2"
     inkscape:zoom="5.6"
     inkscape:cx="42.165718"
     inkscape:cy="28.768884"
     inkscape:document-units="px"
     inkscape:current-layer="layer1"
     inkscape:document-rotation="0"
     showgrid="false"
     units="px"
     inkscape:window-width="1920"
     inkscape:window-height="1040"
     inkscape:window-x="0"
     inkscape:window-y="0"
     inkscape:window-maximized="1"
     inkscape:pagecheckerboard="0" />
  <metadata
     id="metadata5">
    <rdf:RDF>
      <cc:Work
         rdf:about="">
        <dc:format>image/svg+xml</dc:format>
        <dc:type
           rdf:resource="http://purl.org/dc/dcmitype/StillImage" />
      </cc:Work>
    </rdf:RDF>
  </metadata>
  <g
     inkscape:label="28-Money growth"
     inkscape:groupmode="layer"
     id="layer1">
    <path
       style="color:#000000;font-style:normal;font-variant:normal;font-weight:normal;font-stretch:normal;font-size:medium;line-height:normal;font-family:sans-serif;font-variant-ligatures:normal;font-variant-position:normal;font-variant-caps:normal;font-variant-numeric:normal;font-variant-alternates:normal;font-feature-settings:normal;text-indent:0;text-align:start;text-decoration:none;text-decoration-line:none;text-decoration-style:solid;text-decoration-color:#000000;letter-spacing:normal;word-spacing:normal;text-transform:none;writing-mode:lr-tb;direction:ltr;text-orientation:mixed;dominant-baseline:auto;baseline-shift:baseline;text-anchor:start;white-space:normal;shape-padding:0;clip-rule:nonzero;display:inline;overflow:visible;visibility:visible;opacity:1;isolation:auto;mix-blend-mode:normal;color-interpolation:sRGB;color-interpolation-filters:linearRGB;solid-color:#000000;solid-opacity:1;vector-effect:none;fill:#000000;fill-opacity:1;fill-rule:nonzero;stroke:none;stroke-width:2.00000143;stroke-linecap:round;stroke-linejoin:round;stroke-miterlimit:4;stroke-dasharray:none;stroke-dashoffset:0;stroke-opacity:1;paint-order:stroke markers fill;color-rendering:auto;image-rendering:auto;shape-rendering:auto;text-rendering:auto;enable-background:accumulate"
       d="M 8.0703125 2 C 7.800133 1.9962205 7.5380811 2.0993302 7.3457031 2.2890625 L 2.296875 7.2851562 C 1.669738 7.9123313 2.1079192 9.0042079 3.0058594 8.9980469 L 4.9980469 8.9980469 L 4.9980469 12.003906 C 4.9980469 19.587225 10.249397 25.925073 17.330078 27.578125 C 18.314947 29.28409 19.53398 30.698407 20.978516 31.933594 C 20.777823 34.480694 19.523939 36.715229 17.644531 38.222656 C 16.593785 39.037258 17.847551 40.614107 18.890625 39.78125 C 20.88391 38.182472 22.308663 35.908503 22.810547 33.300781 C 23.502578 33.747483 24.233725 34.13841 24.990234 34.482422 C 24.920695 35.870227 24.538275 37.161974 23.910156 38.3125 C 23.270849 39.48438 25.028661 40.443365 25.667969 39.271484 C 26.335887 38.048089 26.773682 36.674578 26.933594 35.226562 C 28.534829 35.725917 30.233927 36.001953 32.001953 36.001953 C 33.770054 36.001953 35.46904 35.726068 37.070312 35.226562 C 37.23019 36.674578 37.668091 38.048089 38.335938 39.271484 C 38.975245 40.443365 40.733019 39.484267 40.09375 38.3125 C 39.46563 37.161974 39.083329 35.870227 39.013672 34.482422 C 39.77022 34.138485 40.501328 33.747483 41.193359 33.300781 C 41.695205 35.908503 43.119996 38.182472 45.113281 39.78125 C 46.156317 40.614107 47.410084 39.037258 46.359375 38.222656 C 44.479967 36.715229 43.226121 34.480694 43.025391 31.933594 C 44.469888 30.698407 45.688921 29.28409 46.673828 27.578125 C 53.754508 25.925073 59.005859 19.587225 59.005859 12.003906 L 59.005859 8.9980469 L 60.998047 8.9980469 C 61.895987 9.0056059 62.332177 7.9123313 61.705078 7.2851562 L 56.658203 2.2890625 C 56.465825 2.0993302 56.203717 1.9943307 55.933594 2 C 55.672428 2.0037795 55.424146 2.109725 55.240234 2.2949219 L 50.294922 7.2929688 C 49.667936 7.9236585 50.114659 8.9975555 51.003906 8.9980469 L 53.003906 8.9980469 L 53.003906 10.998047 C 53.003906 15.05828 51.422242 18.71447 48.828125 21.40625 C 48.940377 20.616896 49.003906 19.822073 49.003906 19.001953 C 49.003906 9.6248701 41.395251 2 32.001953 2 C 22.608655 2 15 9.6248701 15 19.001953 C 15 19.822073 15.063533 20.616896 15.175781 21.40625 C 12.581664 18.71447 11 15.05828 11 10.998047 L 11 8.9980469 L 13 8.9980469 C 13.889247 8.9975555 14.33597 7.9236585 13.708984 7.2929688 L 8.7636719 2.2949219 C 8.5796089 2.109725 8.3312322 2.0041575 8.0703125 2 z M 8.046875 4.4140625 L 10.601562 6.9980469 L 10.003906 6.9980469 C 9.4485814 6.9959303 8.9979213 7.4466271 9 8.0019531 L 9 10.998047 C 9 16.047987 11.303209 21.39605 16.013672 24.767578 C 16.063562 24.925562 16.118077 25.031034 16.15625 25.150391 C 10.662329 23.093308 6.9980469 17.935005 6.9980469 12.003906 L 6.9980469 8.0019531 C 7.000239 7.4494996 6.5544067 7.0000122 6.0019531 6.9980469 L 5.4335938 6.9980469 L 8.046875 4.4140625 z M 55.957031 4.4140625 L 58.570312 6.9980469 L 58.001953 6.9980469 C 57.449537 7.0000171 57.003743 7.4494996 57.005859 8.0019531 L 57.005859 12.003906 C 57.005859 17.935005 53.341577 23.093308 47.847656 25.150391 C 47.885829 25.030958 47.940345 24.925486 47.990234 24.767578 C 52.700697 21.39605 55.003906 16.047987 55.003906 10.998047 L 55.003906 8.0019531 C 55.006008 7.4466271 54.555326 6.9959303 54 6.9980469 L 53.402344 6.9980469 L 55.957031 4.4140625 z M 32.001953 8 C 38.061179 8 43.001953 12.914948 43.001953 19.001953 C 43.001953 25.088995 38.057513 30 32.001953 30 C 25.946394 30 21.001953 25.088995 21.001953 19.001953 C 21.001953 12.914948 25.942803 8 32.001953 8 z M 31.986328 9.9882812 C 31.433874 9.9958405 30.989896 10.445593 30.996094 10.998047 L 30.996094 12 L 30 12 C 28.355339 12 27.003906 13.311118 27.003906 15 L 27.003906 17 C 27.003906 18.675956 28.355377 19.998047 30 19.998047 L 30.996094 19.998047 L 30.996094 23.998047 L 29.996094 23.998047 C 29.452106 23.998047 29 23.573266 29 23.001953 C 29 21.668271 27 21.668271 27 23.001953 C 27 24.666192 28.351432 25.998047 29.996094 25.998047 L 30.996094 25.998047 L 30.996094 27.003906 C 30.996094 28.33755 32.996094 28.33755 32.996094 27.003906 L 32.996094 25.998047 L 34.003906 25.998047 C 35.676196 25.998047 37 24.646652 37 23.001953 L 37 21.001953 C 37 19.318551 35.648568 17.996094 34.003906 17.996094 L 32.996094 17.996094 L 32.996094 14 L 34.001953 14 C 34.553726 14 34.998047 14.428724 34.998047 15 C 34.998047 16.333682 36.998047 16.333682 36.998047 15 C 36.998047 13.355339 35.677871 12 34.001953 12 L 32.996094 12 L 32.996094 10.998047 C 33.003691 10.436938 32.547475 9.9819694 31.986328 9.9882812 z M 30 14 L 30.996094 14 L 30.996094 17.996094 L 30 17.996094 C 29.428687 17.996094 29.003906 17.547843 29.003906 17 L 29.003906 15 C 29.003906 14.456126 29.428725 14 30 14 z M 32.996094 19.998047 L 34.003906 19.998047 C 34.57522 19.998047 35 20.454111 35 21.001953 L 35 23.001953 C 35 23.573266 34.547931 23.998047 34.003906 23.998047 L 32.996094 23.998047 L 32.996094 19.998047 z M 30.009766 37.986328 C 29.448657 37.978769 28.991621 38.4369 28.998047 38.998047 C 28.998047 43.953045 24.982201 47.982422 20.007812 47.982422 C 18.674168 47.982422 18.674168 49.982422 20.007812 49.982422 C 26.062995 49.982422 31 45.072995 31 38.998047 C 31.007597 38.445593 30.562181 37.992375 30.009766 37.986328 z M 33.986328 37.986328 C 33.433875 37.993887 32.989896 38.445593 32.996094 38.998047 C 32.996094 45.072995 37.933138 49.982422 43.988281 49.982422 C 45.321925 49.982422 45.321925 47.982422 43.988281 47.982422 C 39.013932 47.982422 34.998047 43.953045 34.998047 38.998047 C 35.005606 38.4369 34.547437 37.979979 33.986328 37.986328 z M 21.220703 41.007812 C 20.895342 40.985135 20.563069 41.015238 20.236328 41.101562 C 19.41515 41.321531 18.745442 41.870272 18.361328 42.587891 C 18.130021 42.464678 17.891561 42.361186 17.644531 42.275391 C 16.540795 41.892865 15.304747 41.897831 14.154297 42.357422 C 12.523884 43.008748 11.401403 44.437394 11.09375 46.078125 C 8.1429969 45.661848 5.1849535 46.929477 3.4453125 49.414062 C 1.5182826 52.166239 1.5182826 55.837667 3.4453125 58.589844 C 5.3723047 61.34202 8.8192752 62.596118 12.064453 61.726562 C 13.378406 61.396232 12.850245 59.42284 11.546875 59.792969 C 9.10719 60.446676 6.5326773 59.508404 5.0839844 57.439453 C 3.6352536 55.370389 3.6352536 52.627658 5.0839844 50.558594 C 6.452967 48.603406 8.8396097 47.660103 11.134766 48.109375 C 11.138166 48.124493 11.146611 48.159088 11.150391 48.173828 C 11.730926 50.582597 13.989771 52.208059 16.472656 51.976562 C 17.907667 51.950106 17.704761 49.753485 16.289062 49.990234 C 14.797131 50.129321 13.437321 49.134898 13.091797 47.701172 C 12.746726 46.270092 13.508844 44.77269 14.900391 44.216797 C 16.291862 43.660904 17.858206 44.205424 18.607422 45.501953 C 19.267516 46.692013 21.044979 45.663351 20.341797 44.498047 C 20.243907 44.328724 20.146711 44.185135 20.013672 44.003906 C 20.014617 43.534753 20.314183 43.155522 20.755859 43.037109 C 21.197685 42.91881 21.648254 43.105896 21.876953 43.501953 C 22.53701 44.691975 24.314396 43.663313 23.611328 42.498047 C 23.103964 41.619231 22.195387 41.076184 21.220703 41.007812 z M 42.777344 41.007812 C 41.802622 41.076071 40.894083 41.619269 40.386719 42.498047 C 39.683651 43.663162 41.460999 44.691975 42.121094 43.501953 C 42.349755 43.105821 42.800399 42.918735 43.242188 43.037109 C 43.684052 43.155409 43.983392 43.534753 43.984375 44.003906 C 43.851336 44.184946 43.75414 44.328535 43.65625 44.498047 C 42.953107 45.663162 44.730568 46.692051 45.390625 45.501953 C 46.139841 44.204252 47.706148 43.660904 49.097656 44.216797 C 50.489165 44.77269 51.25117 46.270092 50.90625 47.701172 C 50.560801 49.134898 49.200991 50.129359 47.708984 49.990234 C 46.2934 49.753636 46.090493 51.949841 47.525391 51.976562 C 50.008276 52.20787 52.267083 50.582634 52.847656 48.173828 C 52.851258 48.15871 52.859502 48.124115 52.863281 48.109375 C 55.158437 47.660144 57.546995 48.603403 58.916016 50.558594 C 60.364709 52.627655 60.364709 55.370385 58.916016 57.439453 C 57.467323 59.508514 54.890895 60.446676 52.451172 59.792969 C 51.147802 59.422953 50.619641 61.396043 51.933594 61.726562 C 55.178772 62.596118 58.627658 61.341982 60.554688 58.589844 C 62.48168 55.837667 62.48168 52.166235 60.554688 49.414062 C 58.815047 46.929473 55.855087 45.661889 52.904297 46.078125 C 52.596643 44.437432 51.474163 43.008748 49.84375 42.357422 C 48.693337 41.897828 47.457251 41.892861 46.353516 42.275391 C 46.106335 42.360808 45.868026 42.464678 45.636719 42.587891 C 45.252605 41.870272 44.582897 41.321607 43.761719 41.101562 C 43.435168 41.013877 43.102704 40.984909 42.777344 41.007812 z M 35.976562 49.214844 C 35.808751 49.219379 35.645058 49.265288 35.5 49.349609 C 34.202904 50.098523 33.653397 51.713896 34.226562 53.097656 C 34.58335 53.959086 35.295662 54.575261 36.142578 54.824219 C 35.846263 56.044099 36.011075 57.362754 36.669922 58.503906 C 37.798981 60.459585 40.109812 61.418451 42.291016 60.833984 C 44.472181 60.249518 46.003906 58.262098 46.003906 56.003906 C 46.007686 54.667957 44.003931 54.663836 44 55.998047 C 44 57.36068 43.08962 58.549676 41.773438 58.902344 C 40.457255 59.254974 39.083641 58.678242 38.402344 57.498047 C 37.721007 56.317965 37.913438 54.840506 38.876953 53.876953 C 39.970824 52.939895 38.403856 51.37285 37.466797 52.466797 C 37.322797 52.610797 37.15041 52.782011 37.050781 52.943359 C 36.607178 52.950918 36.247158 52.741038 36.076172 52.328125 C 35.881148 51.857347 36.057304 51.338762 36.5 51.083984 C 37.402098 50.567172 37.015857 49.187272 35.976562 49.214844 z M 28.019531 49.216797 C 26.980236 49.189584 26.593996 50.567172 27.496094 51.083984 C 27.937278 51.338725 28.114908 51.857347 27.919922 52.328125 C 27.749087 52.741001 27.388953 52.952052 26.945312 52.943359 C 26.845533 52.781974 26.673146 52.610759 26.529297 52.466797 C 25.592239 51.37285 24.02527 52.939857 25.119141 53.876953 C 26.082656 54.840506 26.275085 56.317965 25.59375 57.498047 C 24.912452 58.678167 23.538839 59.255011 22.222656 58.902344 C 20.906473 58.549714 19.996094 57.360718 19.996094 55.998047 C 19.992276 54.662286 17.988408 54.668209 17.992188 56.005859 C 17.992188 58.264089 19.523913 60.251471 21.705078 60.835938 C 23.886281 61.420404 26.197114 60.461387 27.326172 58.505859 C 27.984982 57.364707 28.149981 56.046052 27.853516 54.826172 C 28.700431 54.577101 29.412743 53.961039 29.769531 53.099609 C 30.342696 51.715849 29.79217 50.100438 28.496094 49.351562 C 28.35096 49.267279 28.187266 49.22171 28.019531 49.216797 z "
       transform="scale(0.26458334)"
       id="path844" />
  </g>
</svg>
